<svg width="200" height="230" xmlns="http://www.w3.org/2000/svg">
  <!-- Hexagon -->
  <polygon points="100,10 180,55 180,145 100,190 20,145 20,55" stroke="#ffffff" stroke-width="4" fill="none" />
  
  <!-- Top Cube -->
  <polygon points="80,70 100,60 120,70 100,80" stroke="#ffffff" stroke-width="2" fill="none" />
  <polygon points="80,70 80,90 100,100 100,80" stroke="#ffffff" stroke-width="2" fill="none" />
  <polygon points="100,80 100,100 120,90 120,70" stroke="#ffffff" stroke-width="2" fill="none" />

  <!-- Bottom Left Cube -->
  <polygon points="60,120 80,110" stroke="#ffffff" stroke-width="2" fill="none" />
  <polygon points="60,120 60,140 80,150 80,130" stroke="#ffffff" stroke-width="2" fill="none" />
  <polygon points="80,130 80,150 100,140 100,120" stroke="#ffffff" stroke-width="2" fill="none" />

  <!-- Bottom Right Cube -->
  <polygon points="100,120 120,110 140,120 120,130" stroke="#ffffff" stroke-width="2" fill="none" />
  <polygon points="100,120 100,140 120,150 120,130" stroke="#ffffff" stroke-width="2" fill="none" />
  <polygon points="120,130 120,150 140,140 140,120" stroke="#ffffff" stroke-width="2" fill="none" />
</svg>
